<svg width="432" height="41" viewBox="0 0 432 41" fill="none" xmlns="http://www.w3.org/2000/svg">
<line y1="40.5" x2="432" y2="40.5" stroke="black"/>
<g clip-path="url(#clip0)">
<path d="M29 0H8C7.00822 0 6.25 0.758219 6.25 1.75V33.25C6.25 34.2418 7.00822 35 8 35H23.9833L30.75 28.2333V1.75C30.75 0.758219 29.9918 0 29 0V0ZM29.5833 27.7667L24.3333 33.0167V29.1667C24.3333 28.8166 24.5666 28.5833 24.9167 28.5833H27.8333V27.4167H24.9167C23.9249 27.4167 23.1667 28.1749 23.1667 29.1667V33.8333H8C7.64994 33.8333 7.41667 33.6001 7.41667 33.25V1.75C7.41667 1.39994 7.64994 1.16667 8 1.16667H29C29.3501 1.16667 29.5833 1.39994 29.5833 1.75V27.7667Z" fill="black"/>
<path d="M15 3.5H22V4.66667H15V3.5Z" fill="black"/>
<path d="M10.9167 19.25H26.0834V20.4167H10.9167V19.25Z" fill="black"/>
<path d="M10.9167 22.1667H26.0834V23.3333H10.9167V22.1667Z" fill="black"/>
<path d="M10.9167 25.0833H26.0834V26.25H10.9167V25.0833Z" fill="black"/>
<path d="M10.9167 28H20.8334V29.1667H10.9167V28Z" fill="black"/>
<path d="M23.75 15.5167V8.39993L18.5 5.77493L13.25 8.39993V15.5167L18.5 18.1417L23.75 15.5167ZM18.5 10.9665L17.0417 10.0915L20.5417 8.10826L22 8.80838L18.5 10.9665ZM19.2582 7.46654L15.9334 9.39171L15 8.80838L18.5 7.05838L19.2582 7.46654ZM14.4167 9.79987L17.9167 11.9583V15.3415H19.0833V11.9583L22.5833 9.79987V14.8166L18.5 16.8583L14.4167 14.8166V9.79987Z" fill="black"/>
</g>
<defs>
<clipPath id="clip0">
<rect width="35" height="35" fill="white" transform="translate(1)"/>
</clipPath>
</defs>
</svg>
