<svg width="432" height="41" viewBox="0 0 432 41" fill="none" xmlns="http://www.w3.org/2000/svg">
<line y1="40.5" x2="432" y2="40.5" stroke="black"/>
<path d="M17.5001 30.2703C17.4264 30.2699 17.3538 30.2524 17.2881 30.2191C17.2225 30.1857 17.1655 30.1375 17.1217 30.0782C16.7391 29.558 7.7417 17.2914 7.7417 10.7062C7.7417 8.11749 8.77006 5.63481 10.6006 3.80431C12.431 1.97382 14.9137 0.945457 17.5024 0.945457C20.0912 0.945457 22.5738 1.97382 24.4043 3.80431C26.2348 5.63481 27.2632 8.11749 27.2632 10.7062C27.2632 17.2914 18.2658 29.5594 17.8832 30.0782C17.839 30.1381 17.7812 30.1868 17.7146 30.2201C17.6481 30.2535 17.5745 30.2707 17.5001 30.2703ZM17.5001 1.89188C15.1631 1.89451 12.9227 2.82398 11.2701 4.47641C9.61763 6.12883 8.68803 8.36926 8.68528 10.7062C8.68528 16.24 15.7633 26.5437 17.5001 28.9876C19.2368 26.5432 26.3149 16.2395 26.3149 10.7062C26.3121 8.36926 25.3825 6.12883 23.73 4.47641C22.0775 2.82398 19.837 1.89451 17.5001 1.89188V1.89188Z" fill="black"/>
<path d="M17.5 34.054C12.0262 34.054 7.73779 32.0803 7.73779 29.5608C7.73779 27.5469 10.5179 25.8172 14.655 25.2567C14.7166 25.2483 14.7792 25.2522 14.8393 25.268C14.8993 25.2838 14.9557 25.3113 15.0052 25.3489C15.0546 25.3865 15.0962 25.4334 15.1275 25.4871C15.1588 25.5407 15.1792 25.6 15.1876 25.6616C15.196 25.7231 15.1922 25.7857 15.1763 25.8458C15.1605 25.9059 15.1331 25.9623 15.0955 26.0117C15.0579 26.0612 15.0109 26.1027 14.9572 26.134C14.9036 26.1653 14.8443 26.1858 14.7827 26.1942C11.2487 26.6728 8.68374 28.0889 8.68374 29.5608C8.68374 31.2739 12.2268 33.1081 17.5 33.1081C22.7731 33.1081 26.3162 31.2739 26.3162 29.5608C26.3162 28.0889 23.7512 26.6728 20.2148 26.1937C20.0905 26.1768 19.978 26.1111 19.9021 26.0113C19.8262 25.9114 19.793 25.7854 19.81 25.6611C19.8269 25.5368 19.8925 25.4243 19.9924 25.3484C20.0923 25.2725 20.2182 25.2393 20.3425 25.2563C24.4796 25.8172 27.2598 27.5469 27.2598 29.5603C27.2621 32.0803 22.9737 34.054 17.5 34.054Z" fill="black"/>
<path d="M17.5 17.5C16.1904 17.5 14.9102 17.1117 13.8213 16.3841C12.7323 15.6565 11.8836 14.6223 11.3825 13.4124C10.8813 12.2024 10.7502 10.871 11.0057 9.58658C11.2612 8.30211 11.8918 7.12225 12.8178 6.1962C13.7439 5.27015 14.9238 4.6395 16.2082 4.384C17.4927 4.12851 18.8241 4.25964 20.034 4.76081C21.244 5.26199 22.2781 6.1107 23.0057 7.19962C23.7333 8.28854 24.1217 9.56876 24.1217 10.8784C24.1198 12.634 23.4216 14.3171 22.1802 15.5585C20.9388 16.7999 19.2556 17.4981 17.5 17.5V17.5ZM17.5 5.20272C16.3775 5.20272 15.2802 5.53559 14.3468 6.15924C13.4134 6.78289 12.686 7.66931 12.2564 8.70641C11.8268 9.7435 11.7144 10.8847 11.9334 11.9857C12.1524 13.0866 12.693 14.0979 13.4867 14.8917C14.2805 15.6855 15.2918 16.226 16.3928 16.445C17.4937 16.664 18.6349 16.5516 19.672 16.122C20.7091 15.6925 21.5955 14.965 22.2192 14.0316C22.8428 13.0983 23.1757 12.0009 23.1757 10.8784C23.1741 9.37361 22.5756 7.93092 21.5116 6.86688C20.4475 5.80284 19.0048 5.20434 17.5 5.20272V5.20272Z" fill="black"/>
</svg>
