<svg width="432" height="41" viewBox="0 0 432 41" fill="none" xmlns="http://www.w3.org/2000/svg">
<line y1="40.5" x2="432" y2="40.5" stroke="black"/>
<g clip-path="url(#clip0)">
<path d="M33.125 30H6.875C5.84125 30 5 29.1588 5 28.125V11.875C5 10.8412 5.84125 10 6.875 10H33.125C34.1588 10 35 10.8412 35 11.875V28.125C35 29.1588 34.1588 30 33.125 30ZM6.875 11.25C6.53 11.25 6.25 11.5312 6.25 11.875V28.125C6.25 28.4688 6.53 28.75 6.875 28.75H33.125C33.47 28.75 33.75 28.4688 33.75 28.125V11.875C33.75 11.5312 33.47 11.25 33.125 11.25H6.875Z" fill="black"/>
<path d="M29.3786 26.25H10.6211C9.58734 26.25 8.74609 25.4087 8.74609 24.375V15.625C8.74609 14.5912 9.58734 13.75 10.6211 13.75H29.3786C30.4123 13.75 31.2536 14.5912 31.2536 15.625V24.375C31.2536 25.4087 30.4123 26.25 29.3786 26.25ZM10.6211 15C10.2761 15 9.99609 15.2812 9.99609 15.625V24.375C9.99609 24.7187 10.2761 25 10.6211 25H29.3786C29.7236 25 30.0036 24.7187 30.0036 24.375V15.625C30.0036 15.2812 29.7236 15 29.3786 15H10.6211Z" fill="black"/>
<path d="M33.125 7.5H16.875C15.8412 7.5 15 6.65875 15 5.625V1.875C15 0.84125 15.8412 0 16.875 0H33.125C34.1588 0 35 0.84125 35 1.875V5.625C35 6.65875 34.1588 7.5 33.125 7.5ZM16.875 1.25C16.53 1.25 16.25 1.53125 16.25 1.875V5.625C16.25 5.96875 16.53 6.25 16.875 6.25H33.125C33.47 6.25 33.75 5.96875 33.75 5.625V1.875C33.75 1.53125 33.47 1.25 33.125 1.25H16.875Z" fill="black"/>
<path d="M8.75 7.5C6.6825 7.5 5 5.8175 5 3.75C5 1.6825 6.6825 0 8.75 0C10.8175 0 12.5 1.6825 12.5 3.75C12.5 5.8175 10.8175 7.5 8.75 7.5ZM8.75 1.25C7.37125 1.25 6.25 2.37125 6.25 3.75C6.25 5.12875 7.37125 6.25 8.75 6.25C10.1287 6.25 11.25 5.12875 11.25 3.75C11.25 2.37125 10.1287 1.25 8.75 1.25Z" fill="black"/>
</g>
<defs>
<clipPath id="clip0">
<rect width="30" height="30" fill="white" transform="translate(5)"/>
</clipPath>
</defs>
</svg>
